{"glyphs":{"0":{"ha":1361,"x_min":0,"x_max":0,"o":"m 399 972 b 0 583 178 972 0 799 l 0 389 b 399 0 0 175 178 0 l 788 0 b 1186 389 1007 0 1186 175 l 1186 583 b 788 972 1186 799 1007 972 z m 214 583 b 399 778 214 690 296 778 l 486 778 l 486 194 l 399 194 b 214 389 296 194 214 282 z m 972 389 b 788 194 972 282 889 194 l 700 194 l 700 778 l 788 778 b 972 583 889 778 972 690 z "},"1":{"ha":583,"x_min":0,"x_max":0,"o":"m 194 0 l 194 681 b 107 778 194 735 156 778 l 0 778 l 0 972 l 107 972 b 408 681 274 972 408 842 l 408 0 z "},"2":{"ha":1361,"x_min":0,"x_max":0,"o":"m 301 0 b 0 292 136 0 0 131 b 301 583 0 453 136 583 l 885 583 b 972 681 933 583 972 628 b 885 778 972 735 933 778 l 97 778 l 97 972 l 885 972 b 1186 681 1051 972 1186 842 b 885 389 1186 519 1051 389 l 301 389 b 214 292 254 389 214 346 b 301 194 214 239 254 194 l 1186 194 l 1186 0 z "},"3":{"ha":1361,"x_min":0,"x_max":0,"o":"m 1186 681 b 885 972 1186 842 1051 972 l 0 972 l 0 778 l 885 778 b 972 681 933 778 972 735 b 885 583 972 628 933 583 l 97 583 l 97 389 l 885 389 b 972 292 933 389 972 346 b 885 194 972 239 933 194 l 0 194 l 0 0 l 885 0 b 1186 292 1051 0 1186 131 b 1108 486 1186 367 1157 435 b 1186 681 1157 538 1186 606 z "},"4":{"ha":1361,"x_min":0,"x_max":0,"o":"m 972 486 l 301 486 b 214 583 253 486 214 531 l 214 972 l 0 972 l 0 583 b 301 292 0 422 135 292 l 972 292 l 972 0 l 1186 0 l 1186 972 l 972 972 z "},"5":{"ha":1361,"x_min":0,"x_max":0,"o":"m 97 0 l 97 194 l 885 194 b 972 292 933 194 972 239 b 885 389 972 346 933 389 l 301 389 b 0 681 136 389 0 519 b 301 972 0 842 136 972 l 1186 972 l 1186 778 l 301 778 b 214 681 254 778 214 735 b 301 583 214 628 254 583 l 885 583 b 1186 292 1051 583 1186 453 b 885 0 1186 131 1051 0 z "},"6":{"ha":1361,"x_min":0,"x_max":0,"o":"m 399 0 b 0 389 179 0 0 175 l 0 583 b 399 972 0 799 179 972 l 1089 972 l 1089 778 l 399 778 b 214 583 297 778 214 690 l 885 583 b 1186 292 1051 583 1186 453 b 885 0 1186 131 1051 0 z m 214 389 b 399 194 214 282 297 194 l 885 194 b 972 292 933 194 972 239 b 885 389 972 346 933 389 z "},"7":{"ha":1361,"x_min":0,"x_max":0,"o":"m 389 0 l 389 97 b 788 486 389 313 568 486 b 972 681 889 486 972 574 b 885 778 972 735 933 778 l 0 778 l 0 972 l 885 972 b 1186 681 1050 972 1186 842 b 788 292 1186 467 1007 292 b 603 97 685 292 603 204 l 603 0 z "},"8":{"ha":1361,"x_min":0,"x_max":0,"o":"m 1186 681 b 885 972 1186 842 1050 972 l 301 972 b 0 681 135 972 0 842 b 76 486 0 606 29 538 b 0 292 29 435 0 367 b 301 0 0 131 135 0 l 885 0 b 1186 292 1050 0 1186 131 b 1108 486 1186 367 1156 435 b 1186 681 1156 538 1186 606 z m 885 778 b 972 681 932 778 972 735 b 885 583 972 628 932 583 l 301 583 b 214 681 253 583 214 628 b 301 778 214 735 253 778 z m 301 194 b 214 292 253 194 214 239 b 301 389 214 346 253 389 l 885 389 b 972 292 932 389 972 346 b 885 194 972 239 932 194 z "},"9":{"ha":1361,"x_min":0,"x_max":0,"o":"m 972 0 l 972 292 l 301 292 b 0 583 136 292 0 422 l 0 681 b 301 972 0 842 136 972 l 885 972 b 1186 681 1051 972 1186 842 l 1186 0 z m 301 778 b 214 681 253 778 214 735 l 214 583 b 301 486 214 531 253 486 l 972 486 l 972 681 b 885 778 972 735 933 778 z "},"A":{"ha":1361,"x_min":0,"x_max":0,"o":"m 399 972 b 0 583 178 972 0 799 l 0 0 l 214 0 l 214 292 l 972 292 l 972 0 l 1186 0 l 1186 583 b 788 972 1186 799 1007 972 z m 214 583 b 399 778 214 690 296 778 l 788 778 b 972 583 889 778 972 690 l 972 486 l 214 486 z "},"B":{"ha":1458,"x_min":0,"x_max":0,"o":"m 301 0 b 0 292 135 0 0 131 l 0 681 b 301 972 0 842 135 972 l 982 972 b 1283 681 1149 972 1283 842 b 1207 486 1283 606 1254 538 b 1283 292 1254 435 1283 367 b 982 0 1283 131 1149 0 z m 982 583 b 1069 681 1031 583 1069 628 b 982 778 1069 735 1031 778 l 301 778 b 214 681 253 778 214 735 l 214 583 z m 214 292 b 301 194 214 239 253 194 l 982 194 b 1069 292 1031 194 1069 239 b 982 389 1069 346 1031 389 l 214 389 z "},"C":{"ha":1361,"x_min":0,"x_max":0,"o":"m 399 0 b 0 389 179 0 0 175 l 0 583 b 399 972 0 799 179 972 l 1186 972 l 1186 778 l 399 778 b 214 583 297 778 214 690 l 214 389 b 399 194 214 282 297 194 l 1186 194 l 1186 0 z "},"D":{"ha":1458,"x_min":0,"x_max":0,"o":"m 301 0 b 0 292 135 0 0 131 l 0 681 b 301 972 0 842 135 972 l 885 972 b 1283 583 1104 972 1283 799 l 1283 389 b 885 0 1283 175 1104 0 z m 301 778 b 214 681 253 778 214 735 l 214 292 b 301 194 214 239 253 194 l 885 194 b 1069 389 986 194 1069 282 l 1069 583 b 885 778 1069 690 986 778 z "},"E":{"ha":1361,"x_min":0,"x_max":0,"o":"m 214 389 l 1089 389 l 1089 583 l 214 583 l 214 681 b 301 778 214 735 253 778 l 1186 778 l 1186 972 l 301 972 b 0 681 135 972 0 842 l 0 292 b 301 0 0 131 135 0 l 1186 0 l 1186 194 l 301 194 b 214 292 253 194 214 239 z "},"F":{"ha":1361,"x_min":0,"x_max":0,"o":"m 1186 778 l 1186 972 l 301 972 b 0 681 135 972 0 842 l 0 0 l 214 0 l 214 292 l 1089 292 l 1089 486 l 214 486 l 214 681 b 301 778 214 735 253 778 z "},"G":{"ha":1458,"x_min":0,"x_max":0,"o":"m 399 0 b 0 389 179 0 0 175 l 0 583 b 399 972 0 799 179 972 l 1186 972 l 1186 778 l 399 778 b 214 583 297 778 214 690 l 214 389 b 399 194 214 282 297 194 l 982 194 b 1069 292 1031 194 1069 239 b 982 389 1069 346 1031 389 l 389 389 l 389 583 l 982 583 b 1283 292 1149 583 1283 453 b 982 0 1283 131 1149 0 z "},"H":{"ha":1361,"x_min":0,"x_max":0,"o":"m 972 583 l 214 583 l 214 972 l 0 972 l 0 0 l 214 0 l 214 389 l 972 389 l 972 0 l 1186 0 l 1186 972 l 972 972 z "},"I":{"ha":389,"x_min":0,"x_max":0,"o":"m 0 0 l 0 972 l 214 972 l 214 0 z "},"J":{"ha":1361,"x_min":0,"x_max":0,"o":"m 399 0 b 0 389 179 0 0 175 l 0 486 l 214 486 l 214 389 b 399 194 214 282 297 194 l 788 194 b 972 389 889 194 972 282 l 972 972 l 1186 972 l 1186 389 b 788 0 1186 175 1007 0 z "},"K":{"ha":1361,"x_min":0,"x_max":0,"o":"m 1186 972 l 972 972 l 972 778 b 788 583 972 671 889 583 l 214 583 l 214 972 l 0 972 l 0 0 l 214 0 l 214 389 l 788 389 b 972 194 889 389 972 301 l 972 0 l 1186 0 l 1186 194 b 1050 486 1186 311 1133 415 b 1186 778 1133 558 1186 663 z "},"L":{"ha":1361,"x_min":0,"x_max":0,"o":"m 301 0 b 0 292 136 0 0 131 l 0 972 l 214 972 l 214 292 b 301 194 214 239 254 194 l 1186 194 l 1186 0 z "},"M":{"ha":1556,"x_min":0,"x_max":0,"o":"m 982 972 b 690 847 867 972 763 924 b 399 972 617 924 514 972 l 301 972 b 0 681 135 972 0 842 l 0 0 l 214 0 l 214 681 b 301 778 214 735 253 778 l 399 778 b 583 583 500 778 583 690 l 583 0 l 797 0 l 797 583 b 982 778 797 690 881 778 l 1079 778 b 1167 681 1128 778 1167 735 l 1167 0 l 1381 0 l 1381 681 b 1079 972 1381 842 1246 972 z "},"N":{"ha":1458,"x_min":0,"x_max":0,"o":"m 982 0 b 583 389 763 0 583 175 l 583 583 b 399 778 583 690 500 778 l 301 778 b 214 681 253 778 214 735 l 214 0 l 0 0 l 0 681 b 301 972 0 842 135 972 l 399 972 b 797 583 618 972 797 799 l 797 389 b 982 194 797 282 881 194 b 1069 292 1031 194 1069 239 l 1069 972 l 1283 972 l 1283 292 b 982 0 1283 131 1149 0 z "},"O":{"ha":1458,"x_min":0,"x_max":0,"o":"m 399 0 b 0 389 179 0 0 175 l 0 583 b 399 972 0 799 179 972 l 885 972 b 1283 583 1106 972 1283 799 l 1283 389 b 885 0 1283 175 1106 0 z m 399 778 b 214 583 297 778 214 690 l 214 389 b 399 194 214 282 297 194 l 885 194 b 1069 389 988 194 1069 282 l 1069 583 b 885 778 1069 690 988 778 z "},"P":{"ha":1458,"x_min":0,"x_max":0,"o":"m 0 0 l 0 681 b 301 972 0 842 135 972 l 982 972 b 1283 681 1149 972 1283 842 l 1283 583 b 982 292 1283 422 1149 292 l 214 292 l 214 0 z m 982 486 b 1069 583 1031 486 1069 531 l 1069 681 b 982 778 1069 735 1031 778 l 301 778 b 214 681 253 778 214 735 l 214 486 z "},"Q":{"ha":1458,"x_min":0,"x_max":0,"o":"m 399 972 b 0 583 179 972 0 799 l 0 389 b 399 0 0 175 179 0 l 885 0 b 1283 389 1106 0 1283 175 l 1283 583 b 885 972 1283 799 1106 972 z m 214 583 b 399 778 214 690 297 778 l 885 778 b 1069 583 988 778 1069 690 l 1069 389 b 1044 292 1069 354 1061 321 l 982 292 b 894 389 935 292 894 336 l 894 486 l 681 486 l 681 389 b 758 194 681 314 711 246 l 399 194 b 214 389 297 194 214 282 z "},"R":{"ha":1458,"x_min":0,"x_max":0,"o":"m 982 389 b 1283 681 1149 389 1283 519 b 982 972 1283 842 1149 972 l 301 972 b 0 681 135 972 0 842 l 0 0 l 214 0 l 214 389 l 681 389 b 1079 0 681 175 860 0 l 1283 0 l 1283 194 l 1079 194 b 894 389 978 194 894 282 z m 214 681 b 301 778 214 735 253 778 l 982 778 b 1069 681 1031 778 1069 735 b 982 583 1069 628 1031 583 l 214 583 z "},"S":{"ha":1458,"x_min":0,"x_max":0,"o":"m 0 0 l 0 194 l 982 194 b 1069 292 1031 194 1069 239 b 982 389 1069 346 1031 389 l 301 389 b 0 681 136 389 0 519 b 301 972 0 842 136 972 l 1186 972 l 1186 778 l 301 778 b 214 681 254 778 214 735 b 301 583 214 628 254 583 l 982 583 b 1283 292 1149 583 1283 453 b 982 0 1283 131 1149 0 z "},"T":{"ha":1361,"x_min":0,"x_max":0,"o":"m 0 972 l 0 778 l 486 778 l 486 0 l 700 0 l 700 778 l 1186 778 l 1186 972 z "},"U":{"ha":1361,"x_min":0,"x_max":0,"o":"m 399 0 b 0 389 178 0 0 175 l 0 972 l 214 972 l 214 389 b 399 194 214 282 296 194 l 788 194 b 972 389 889 194 972 282 l 972 972 l 1186 972 l 1186 389 b 788 0 1186 175 1007 0 z "},"V":{"ha":1458,"x_min":0,"x_max":0,"o":"m 593 0 b 194 389 374 0 194 175 l 194 681 b 107 778 194 735 156 778 l 0 778 l 0 972 l 107 972 b 408 681 272 972 408 842 l 408 389 b 593 194 408 282 490 194 l 690 194 b 875 389 792 194 875 282 l 875 681 b 1176 972 875 842 1010 972 l 1283 972 l 1283 778 l 1176 778 b 1089 681 1128 778 1089 735 l 1089 389 b 690 0 1089 175 910 0 z "},"W":{"ha":1556,"x_min":0,"x_max":0,"o":"m 1167 389 b 982 194 1167 282 1083 194 l 885 194 b 797 292 836 194 797 239 l 797 972 l 583 972 l 583 292 b 496 194 583 239 543 194 l 399 194 b 214 389 296 194 214 282 l 214 972 l 0 972 l 0 389 b 399 0 0 175 179 0 l 496 0 b 690 69 569 0 638 26 b 885 0 743 26 810 0 l 982 0 b 1381 389 1201 0 1381 175 l 1381 972 l 1167 972 z "},"X":{"ha":1361,"x_min":0,"x_max":0,"o":"m 1186 972 l 972 972 l 972 778 b 788 583 972 671 890 583 l 399 583 b 214 778 297 583 214 671 l 214 972 l 0 972 l 0 778 b 136 486 0 663 53 558 b 0 194 53 415 0 311 l 0 0 l 214 0 l 214 194 b 399 389 214 301 297 389 l 788 389 b 972 194 890 389 972 301 l 972 0 l 1186 0 l 1186 194 b 1050 486 1186 311 1133 415 b 1186 778 1133 558 1186 663 z "},"Y":{"ha":1361,"x_min":0,"x_max":0,"o":"m 972 778 b 788 583 972 671 889 583 l 399 583 b 214 778 297 583 214 671 l 214 972 l 0 972 l 0 778 b 399 389 0 564 179 389 l 486 389 l 486 0 l 700 0 l 700 389 l 788 389 b 1186 778 1007 389 1186 564 l 1186 972 l 972 972 z "},"Z":{"ha":1458,"x_min":0,"x_max":0,"o":"m 301 0 b 0 292 135 0 0 131 b 301 583 0 453 135 583 l 982 583 b 1069 681 1031 583 1069 628 b 982 778 1069 735 1031 778 l 97 778 l 97 972 l 982 972 b 1283 681 1149 972 1283 842 b 982 389 1283 519 1149 389 l 301 389 b 214 292 253 389 214 346 b 301 194 214 239 253 194 l 1283 194 l 1283 0 z "},"a":{"ha":1361,"x_min":0,"x_max":0,"o":"m 399 972 b 0 583 178 972 0 799 l 0 0 l 214 0 l 214 292 l 972 292 l 972 0 l 1186 0 l 1186 583 b 788 972 1186 799 1007 972 z m 214 583 b 399 778 214 690 296 778 l 788 778 b 972 583 889 778 972 690 l 972 486 l 214 486 z "},"b":{"ha":1458,"x_min":0,"x_max":0,"o":"m 301 0 b 0 292 135 0 0 131 l 0 681 b 301 972 0 842 135 972 l 982 972 b 1283 681 1149 972 1283 842 b 1207 486 1283 606 1254 538 b 1283 292 1254 435 1283 367 b 982 0 1283 131 1149 0 z m 982 583 b 1069 681 1031 583 1069 628 b 982 778 1069 735 1031 778 l 301 778 b 214 681 253 778 214 735 l 214 583 z m 214 292 b 301 194 214 239 253 194 l 982 194 b 1069 292 1031 194 1069 239 b 982 389 1069 346 1031 389 l 214 389 z "},"c":{"ha":1361,"x_min":0,"x_max":0,"o":"m 399 0 b 0 389 179 0 0 175 l 0 583 b 399 972 0 799 179 972 l 1186 972 l 1186 778 l 399 778 b 214 583 297 778 214 690 l 214 389 b 399 194 214 282 297 194 l 1186 194 l 1186 0 z "},"d":{"ha":1458,"x_min":0,"x_max":0,"o":"m 301 0 b 0 292 135 0 0 131 l 0 681 b 301 972 0 842 135 972 l 885 972 b 1283 583 1104 972 1283 799 l 1283 389 b 885 0 1283 175 1104 0 z m 301 778 b 214 681 253 778 214 735 l 214 292 b 301 194 214 239 253 194 l 885 194 b 1069 389 986 194 1069 282 l 1069 583 b 885 778 1069 690 986 778 z "},"e":{"ha":1361,"x_min":0,"x_max":0,"o":"m 214 389 l 1089 389 l 1089 583 l 214 583 l 214 681 b 301 778 214 735 253 778 l 1186 778 l 1186 972 l 301 972 b 0 681 135 972 0 842 l 0 292 b 301 0 0 131 135 0 l 1186 0 l 1186 194 l 301 194 b 214 292 253 194 214 239 z "},"f":{"ha":1361,"x_min":0,"x_max":0,"o":"m 1186 778 l 1186 972 l 301 972 b 0 681 135 972 0 842 l 0 0 l 214 0 l 214 292 l 1089 292 l 1089 486 l 214 486 l 214 681 b 301 778 214 735 253 778 z "},"g":{"ha":1458,"x_min":0,"x_max":0,"o":"m 399 0 b 0 389 179 0 0 175 l 0 583 b 399 972 0 799 179 972 l 1186 972 l 1186 778 l 399 778 b 214 583 297 778 214 690 l 214 389 b 399 194 214 282 297 194 l 982 194 b 1069 292 1031 194 1069 239 b 982 389 1069 346 1031 389 l 389 389 l 389 583 l 982 583 b 1283 292 1149 583 1283 453 b 982 0 1283 131 1149 0 z "},"h":{"ha":1361,"x_min":0,"x_max":0,"o":"m 972 583 l 214 583 l 214 972 l 0 972 l 0 0 l 214 0 l 214 389 l 972 389 l 972 0 l 1186 0 l 1186 972 l 972 972 z "},"i":{"ha":389,"x_min":0,"x_max":0,"o":"m 0 0 l 0 972 l 214 972 l 214 0 z "},"j":{"ha":1361,"x_min":0,"x_max":0,"o":"m 399 0 b 0 389 179 0 0 175 l 0 486 l 214 486 l 214 389 b 399 194 214 282 297 194 l 788 194 b 972 389 889 194 972 282 l 972 972 l 1186 972 l 1186 389 b 788 0 1186 175 1007 0 z "},"k":{"ha":1361,"x_min":0,"x_max":0,"o":"m 1186 972 l 972 972 l 972 778 b 788 583 972 671 889 583 l 214 583 l 214 972 l 0 972 l 0 0 l 214 0 l 214 389 l 788 389 b 972 194 889 389 972 301 l 972 0 l 1186 0 l 1186 194 b 1050 486 1186 311 1133 415 b 1186 778 1133 558 1186 663 z "},"l":{"ha":1361,"x_min":0,"x_max":0,"o":"m 301 0 b 0 292 136 0 0 131 l 0 972 l 214 972 l 214 292 b 301 194 214 239 254 194 l 1186 194 l 1186 0 z "},"m":{"ha":1556,"x_min":0,"x_max":0,"o":"m 982 972 b 690 847 867 972 763 924 b 399 972 617 924 514 972 l 301 972 b 0 681 135 972 0 842 l 0 0 l 214 0 l 214 681 b 301 778 214 735 253 778 l 399 778 b 583 583 500 778 583 690 l 583 0 l 797 0 l 797 583 b 982 778 797 690 881 778 l 1079 778 b 1167 681 1128 778 1167 735 l 1167 0 l 1381 0 l 1381 681 b 1079 972 1381 842 1246 972 z "},"n":{"ha":1458,"x_min":0,"x_max":0,"o":"m 982 0 b 583 389 763 0 583 175 l 583 583 b 399 778 583 690 500 778 l 301 778 b 214 681 253 778 214 735 l 214 0 l 0 0 l 0 681 b 301 972 0 842 135 972 l 399 972 b 797 583 618 972 797 799 l 797 389 b 982 194 797 282 881 194 b 1069 292 1031 194 1069 239 l 1069 972 l 1283 972 l 1283 292 b 982 0 1283 131 1149 0 z "},"o":{"ha":1458,"x_min":0,"x_max":0,"o":"m 399 0 b 0 389 179 0 0 175 l 0 583 b 399 972 0 799 179 972 l 885 972 b 1283 583 1106 972 1283 799 l 1283 389 b 885 0 1283 175 1106 0 z m 399 778 b 214 583 297 778 214 690 l 214 389 b 399 194 214 282 297 194 l 885 194 b 1069 389 988 194 1069 282 l 1069 583 b 885 778 1069 690 988 778 z "},"p":{"ha":1458,"x_min":0,"x_max":0,"o":"m 0 0 l 0 681 b 301 972 0 842 135 972 l 982 972 b 1283 681 1149 972 1283 842 l 1283 583 b 982 292 1283 422 1149 292 l 214 292 l 214 0 z m 982 486 b 1069 583 1031 486 1069 531 l 1069 681 b 982 778 1069 735 1031 778 l 301 778 b 214 681 253 778 214 735 l 214 486 z "},"q":{"ha":1458,"x_min":0,"x_max":0,"o":"m 399 972 b 0 583 179 972 0 799 l 0 389 b 399 0 0 175 179 0 l 885 0 b 1283 389 1106 0 1283 175 l 1283 583 b 885 972 1283 799 1106 972 z m 214 583 b 399 778 214 690 297 778 l 885 778 b 1069 583 988 778 1069 690 l 1069 389 b 1044 292 1069 354 1061 321 l 982 292 b 894 389 935 292 894 336 l 894 486 l 681 486 l 681 389 b 758 194 681 314 711 246 l 399 194 b 214 389 297 194 214 282 z "},"r":{"ha":1458,"x_min":0,"x_max":0,"o":"m 982 389 b 1283 681 1149 389 1283 519 b 982 972 1283 842 1149 972 l 301 972 b 0 681 135 972 0 842 l 0 0 l 214 0 l 214 389 l 681 389 b 1079 0 681 175 860 0 l 1283 0 l 1283 194 l 1079 194 b 894 389 978 194 894 282 z m 214 681 b 301 778 214 735 253 778 l 982 778 b 1069 681 1031 778 1069 735 b 982 583 1069 628 1031 583 l 214 583 z "},"s":{"ha":1458,"x_min":0,"x_max":0,"o":"m 0 0 l 0 194 l 982 194 b 1069 292 1031 194 1069 239 b 982 389 1069 346 1031 389 l 301 389 b 0 681 136 389 0 519 b 301 972 0 842 136 972 l 1186 972 l 1186 778 l 301 778 b 214 681 254 778 214 735 b 301 583 214 628 254 583 l 982 583 b 1283 292 1149 583 1283 453 b 982 0 1283 131 1149 0 z "},"t":{"ha":1361,"x_min":0,"x_max":0,"o":"m 0 972 l 0 778 l 486 778 l 486 0 l 700 0 l 700 778 l 1186 778 l 1186 972 z "},"u":{"ha":1361,"x_min":0,"x_max":0,"o":"m 399 0 b 0 389 178 0 0 175 l 0 972 l 214 972 l 214 389 b 399 194 214 282 296 194 l 788 194 b 972 389 889 194 972 282 l 972 972 l 1186 972 l 1186 389 b 788 0 1186 175 1007 0 z "},"v":{"ha":1458,"x_min":0,"x_max":0,"o":"m 593 0 b 194 389 374 0 194 175 l 194 681 b 107 778 194 735 156 778 l 0 778 l 0 972 l 107 972 b 408 681 272 972 408 842 l 408 389 b 593 194 408 282 490 194 l 690 194 b 875 389 792 194 875 282 l 875 681 b 1176 972 875 842 1010 972 l 1283 972 l 1283 778 l 1176 778 b 1089 681 1128 778 1089 735 l 1089 389 b 690 0 1089 175 910 0 z "},"w":{"ha":1556,"x_min":0,"x_max":0,"o":"m 1167 389 b 982 194 1167 282 1083 194 l 885 194 b 797 292 836 194 797 239 l 797 972 l 583 972 l 583 292 b 496 194 583 239 543 194 l 399 194 b 214 389 296 194 214 282 l 214 972 l 0 972 l 0 389 b 399 0 0 175 179 0 l 496 0 b 690 69 569 0 638 26 b 885 0 743 26 810 0 l 982 0 b 1381 389 1201 0 1381 175 l 1381 972 l 1167 972 z "},"x":{"ha":1361,"x_min":0,"x_max":0,"o":"m 1186 972 l 972 972 l 972 778 b 788 583 972 671 890 583 l 399 583 b 214 778 297 583 214 671 l 214 972 l 0 972 l 0 778 b 136 486 0 663 53 558 b 0 194 53 415 0 311 l 0 0 l 214 0 l 214 194 b 399 389 214 301 297 389 l 788 389 b 972 194 890 389 972 301 l 972 0 l 1186 0 l 1186 194 b 1050 486 1186 311 1133 415 b 1186 778 1133 558 1186 663 z "},"y":{"ha":1361,"x_min":0,"x_max":0,"o":"m 972 778 b 788 583 972 671 889 583 l 399 583 b 214 778 297 583 214 671 l 214 972 l 0 972 l 0 778 b 399 389 0 564 179 389 l 486 389 l 486 0 l 700 0 l 700 389 l 788 389 b 1186 778 1007 389 1186 564 l 1186 972 l 972 972 z "},"z":{"ha":1458,"x_min":0,"x_max":0,"o":"m 301 0 b 0 292 135 0 0 131 b 301 583 0 453 135 583 l 982 583 b 1069 681 1031 583 1069 628 b 982 778 1069 735 1031 778 l 97 778 l 97 972 l 982 972 b 1283 681 1149 972 1283 842 b 982 389 1283 519 1149 389 l 301 389 b 214 292 253 389 214 346 b 301 194 214 239 253 194 l 1283 194 l 1283 0 z "},".":{"ha":389,"x_min":0,"x_max":0,"o":"m 0 194 l 0 0 l 214 0 l 214 194 z "},",":{"ha":583,"x_min":0,"x_max":0,"o":"m 0 0 l 0 194 l 107 194 b 194 292 154 194 194 239 l 194 389 l 408 389 l 408 292 b 107 0 408 131 272 0 z "},":":{"ha":389,"x_min":0,"x_max":0,"o":"m 0 778 l 0 583 l 214 583 l 214 778 z m 0 194 l 0 0 l 214 0 l 214 194 z "},";":{"ha":583,"x_min":0,"x_max":0,"o":"m 194 778 l 194 583 l 408 583 l 408 778 z m 0 0 l 0 194 l 107 194 b 194 292 154 194 194 239 l 194 389 l 408 389 l 408 292 b 107 0 408 131 272 0 z "},"!":{"ha":389,"x_min":0,"x_max":0,"o":"m 0 972 l 0 389 l 214 389 l 214 972 z m 0 194 l 0 0 l 214 0 l 214 194 z "},"?":{"ha":1361,"x_min":0,"x_max":0,"o":"m 1186 681 b 885 972 1186 842 1051 972 l 301 972 b 0 681 135 972 0 842 l 0 583 l 214 583 l 214 681 b 301 778 214 735 253 778 l 885 778 b 972 681 933 778 972 735 b 885 583 972 628 933 583 l 486 583 l 486 389 l 885 389 b 1186 681 1051 389 1186 519 z m 486 194 l 486 0 l 700 0 l 700 194 z "},"*":{"ha":1167,"x_min":0,"x_max":0,"o":"m 778 778 l 778 681 b 690 583 778 628 739 583 l 603 583 l 603 875 l 389 875 l 389 583 l 301 583 b 214 681 253 583 214 628 l 214 778 l 0 778 l 0 681 b 78 486 0 606 29 538 b 0 292 29 435 0 367 l 0 194 l 214 194 l 214 292 b 301 389 214 346 253 389 l 389 389 l 389 97 l 603 97 l 603 389 l 690 389 b 778 292 739 389 778 346 l 778 194 l 992 194 l 992 292 b 914 486 992 367 963 435 b 992 681 963 538 992 606 l 992 778 z "},"#":{"ha":1167,"x_min":0,"x_max":0,"o":"m 992 778 l 797 778 l 797 972 l 583 972 l 583 778 l 408 778 l 408 972 l 194 972 l 194 778 l 0 778 l 0 583 l 194 583 l 194 389 l 0 389 l 0 194 l 194 194 l 194 0 l 408 0 l 408 194 l 583 194 l 583 0 l 797 0 l 797 194 l 992 194 l 992 389 l 797 389 l 797 583 l 992 583 z m 408 389 l 408 583 l 583 583 l 583 389 z "},"/":{"ha":972,"x_min":0,"x_max":0,"o":"m 0 0 l 0 194 l 107 194 b 292 389 208 194 292 282 l 292 583 b 690 972 292 799 469 972 l 797 972 l 797 778 l 690 778 b 506 583 588 778 506 690 l 506 389 b 107 0 506 175 326 0 z "},"\\":{"ha":972,"x_min":0,"x_max":0,"o":"m 797 0 l 797 194 l 690 194 b 506 389 589 194 506 282 l 506 583 b 107 972 506 799 326 972 l 0 972 l 0 778 l 107 778 b 292 583 208 778 292 690 l 292 389 b 690 0 292 175 471 0 z "},"(":{"ha":681,"x_min":0,"x_max":0,"o":"m 399 0 b 0 389 178 0 0 175 l 0 583 b 399 972 0 799 178 972 l 506 972 l 506 778 l 399 778 b 214 583 296 778 214 690 l 214 389 b 399 194 214 282 296 194 l 506 194 l 506 0 z "},")":{"ha":681,"x_min":0,"x_max":0,"o":"m 0 0 l 0 194 l 107 194 b 292 389 210 194 292 282 l 292 583 b 107 778 292 690 210 778 l 0 778 l 0 972 l 107 972 b 506 583 328 972 506 799 l 506 389 b 107 0 506 175 328 0 z "},"{":{"ha":778,"x_min":0,"x_max":0,"o":"m 603 778 l 603 972 l 496 972 b 194 681 331 972 194 842 b 107 583 194 628 156 583 l 0 583 l 0 389 l 107 389 b 194 292 156 389 194 346 b 496 0 194 131 331 0 l 603 0 l 603 194 l 496 194 b 408 292 449 194 408 239 b 332 486 408 367 379 435 b 408 681 379 538 408 606 b 496 778 408 735 449 778 z "},"}":{"ha":778,"x_min":0,"x_max":0,"o":"m 496 583 b 408 681 447 583 408 628 b 107 972 408 842 274 972 l 0 972 l 0 778 l 107 778 b 194 681 156 778 194 735 b 272 486 194 606 224 538 b 194 292 224 435 194 367 b 107 194 194 239 156 194 l 0 194 l 0 0 l 107 0 b 408 292 274 0 408 131 b 496 389 408 346 447 389 l 603 389 l 603 583 z "},"[":{"ha":681,"x_min":0,"x_max":0,"o":"m 301 0 b 0 292 135 0 0 131 l 0 681 b 301 972 0 842 135 972 l 506 972 l 506 778 l 301 778 b 214 681 253 778 214 735 l 214 292 b 301 194 214 239 253 194 l 506 194 l 506 0 z "},"]":{"ha":681,"x_min":0,"x_max":0,"o":"m 0 0 l 0 194 l 204 194 b 292 292 251 194 292 239 l 292 681 b 204 778 292 735 251 778 l 0 778 l 0 972 l 204 972 b 506 681 369 972 506 842 l 506 292 b 204 0 506 131 369 0 z "},"〈":{"ha":681,"x_min":0,"x_max":0,"o":"m 506 972 l 292 972 l 292 778 b 107 583 292 671 208 583 l 0 583 l 0 389 l 107 389 b 292 194 208 389 292 301 l 292 0 l 506 0 l 506 194 b 369 486 506 311 453 415 b 506 778 453 558 506 663 z "},"〉":{"ha":681,"x_min":0,"x_max":0,"o":"m 399 583 b 214 778 296 583 214 671 l 214 972 l 0 972 l 0 778 b 135 486 0 663 53 558 b 0 194 53 415 0 311 l 0 0 l 214 0 l 214 194 b 399 389 214 301 296 389 l 506 389 l 506 583 z "},"-":{"ha":972,"x_min":0,"x_max":0,"o":"m 0 389 l 0 583 l 797 583 l 797 389 z "},"―":{"ha":1167,"x_min":0,"x_max":0,"o":"m 0 389 l 0 583 l 992 583 l 992 389 z "},"_":{"ha":1167,"x_min":0,"x_max":0,"o":"m 0 0 l 0 194 l 992 194 l 992 0 z "},"“":{"ha":778,"x_min":0,"x_max":0,"o":"m 0 583 l 0 972 l 214 972 l 214 583 z m 389 972 l 389 583 l 603 583 l 603 972 z "},"”":{"ha":778,"x_min":0,"x_max":0,"o":"m 0 583 l 0 972 l 214 972 l 214 583 z m 389 972 l 389 583 l 603 583 l 603 972 z "},"‘":{"ha":389,"x_min":0,"x_max":0,"o":"m 0 583 l 0 972 l 214 972 l 214 583 z "},"’":{"ha":389,"x_min":0,"x_max":0,"o":"m 0 583 l 0 972 l 214 972 l 214 583 z "},"\"":{"ha":778,"x_min":0,"x_max":0,"o":"m 0 583 l 0 972 l 214 972 l 214 583 z m 389 972 l 389 583 l 603 583 l 603 972 z "},"'":{"ha":389,"x_min":0,"x_max":0,"o":"m 0 583 l 0 972 l 214 972 l 214 583 z "}," ":{"ha":778,"x_min":0,"x_max":0,"o":""},"@":{"ha":1361,"x_min":0,"x_max":0,"o":"m 399 972 b 0 583 178 972 0 799 l 0 389 b 399 0 0 175 178 0 l 506 0 l 506 194 l 399 194 b 214 389 296 194 214 282 l 214 583 b 399 778 214 690 296 778 l 786 778 b 486 486 621 778 486 647 b 788 194 486 325 621 194 l 885 194 b 1186 486 1050 194 1186 325 l 1186 583 b 788 972 1186 799 1007 972 z m 788 389 b 700 486 739 389 700 433 b 788 583 700 540 739 583 l 972 583 l 972 486 b 885 389 972 433 932 389 z "},"&":{"ha":1361,"x_min":0,"x_max":0,"o":"m 1186 389 l 1186 583 l 1079 583 b 885 514 1006 583 938 557 b 854 536 875 522 865 529 b 894 681 881 579 894 628 b 593 972 894 842 760 972 l 399 972 b 97 681 232 972 97 842 b 138 536 97 628 113 579 b 0 292 56 485 0 394 b 301 0 0 131 136 0 l 690 0 b 885 69 764 0 832 26 b 1079 0 938 26 1006 0 l 1186 0 l 1186 194 l 1079 194 b 992 292 1031 194 992 239 b 1079 389 992 346 1031 389 z m 593 778 b 681 681 642 778 681 735 b 593 583 681 628 642 583 l 399 583 b 311 681 350 583 311 628 b 399 778 311 735 350 778 z m 301 194 b 214 292 253 194 214 239 b 301 389 214 346 253 389 l 690 389 b 778 292 739 389 778 346 b 690 194 778 239 739 194 z "},"|":{"ha":389,"x_min":0,"x_max":0,"o":"m 0 0 l 0 972 l 214 972 l 214 0 z "},"$":{"ha":1361,"x_min":0,"x_max":0,"o":"m 700 583 l 700 778 l 1089 778 l 1089 972 l 301 972 b 0 681 135 972 0 842 b 301 389 0 519 135 389 l 486 389 l 486 194 l 97 194 l 97 0 l 885 0 b 1186 292 1050 0 1186 131 b 885 583 1186 453 1050 583 z m 301 583 b 214 681 253 583 214 628 b 301 778 214 735 253 778 l 486 778 l 486 583 z m 700 194 l 700 389 l 885 389 b 972 292 933 389 972 346 b 885 194 972 239 933 194 z "},"¥":{"ha":1361,"x_min":0,"x_max":0,"o":"m 1186 778 l 974 778 b 992 875 985 808 992 842 l 992 972 l 778 972 l 778 875 b 690 778 778 822 739 778 l 496 778 b 408 875 447 778 408 822 l 408 972 l 194 972 l 194 875 b 213 778 194 842 201 808 l 0 778 l 0 583 l 486 583 l 486 389 l 0 389 l 0 194 l 486 194 l 486 0 l 700 0 l 700 194 l 1186 194 l 1186 389 l 700 389 l 700 583 l 1186 583 z "},"+":{"ha":972,"x_min":0,"x_max":0,"o":"m 506 583 l 506 875 l 292 875 l 292 583 l 0 583 l 0 389 l 292 389 l 292 97 l 506 97 l 506 389 l 797 389 l 797 583 z "},"−":{"ha":972,"x_min":0,"x_max":0,"o":"m 0 389 l 0 583 l 797 583 l 797 389 z "},"=":{"ha":972,"x_min":0,"x_max":0,"o":"m 0 778 l 0 583 l 797 583 l 797 778 z m 0 194 l 0 389 l 797 389 l 797 194 z "},">":{"ha":681,"x_min":0,"x_max":0,"o":"m 399 583 b 214 778 297 583 214 671 l 214 875 l 0 875 l 0 778 b 136 486 0 663 53 558 b 0 194 53 415 0 311 l 0 97 l 214 97 l 214 194 b 399 389 214 301 297 389 l 506 389 l 506 583 z "},"<":{"ha":681,"x_min":0,"x_max":0,"o":"m 506 875 l 292 875 l 292 778 b 107 583 292 671 210 583 l 0 583 l 0 389 l 107 389 b 292 194 210 389 292 301 l 292 97 l 506 97 l 506 194 b 371 486 506 311 453 415 b 506 778 453 558 506 663 z "},"~":{"ha":1167,"x_min":0,"x_max":0,"o":"m 690 194 b 389 486 525 194 389 325 b 301 583 389 540 350 583 b 214 486 254 583 214 540 l 214 389 l 0 389 l 0 486 b 301 778 0 647 136 778 b 603 486 468 778 603 647 b 690 389 603 433 643 389 b 778 486 739 389 778 433 l 778 583 l 992 583 l 992 486 b 690 194 992 325 857 194 z "},"^":{"ha":786,"x_min":0,"x_max":0,"o":"m 394 590 l 394 689 b 306 788 394 743 354 788 b 217 689 257 788 217 743 l 217 590 l 0 590 l 0 689 b 306 985 0 851 138 985 b 611 689 474 985 611 851 l 611 590 z "},"%":{"ha":1361,"x_min":0,"x_max":0,"o":"m 935 579 b 992 778 971 638 992 706 l 992 972 l 778 972 l 778 778 b 593 583 778 671 694 583 l 585 583 b 603 681 596 614 603 647 b 301 972 603 842 468 972 b 0 681 135 972 0 842 b 251 393 0 536 108 417 b 194 194 215 335 194 268 l 194 0 l 408 0 l 408 194 b 593 389 408 301 492 389 l 601 389 b 583 292 590 358 583 326 b 885 0 583 131 718 0 b 1186 292 1051 0 1186 131 b 935 579 1186 436 1078 556 z m 214 681 b 301 778 214 735 253 778 b 389 681 350 778 389 735 b 301 583 389 628 350 583 b 214 681 253 583 214 628 z m 885 194 b 797 292 836 194 797 239 b 885 389 797 346 836 389 b 972 292 933 389 972 346 b 885 194 972 239 933 194 z "}}}
